<?xml version="1.0" encoding="utf-8"?>
<!-- Generator: Adobe Illustrator 24.0.1, SVG Export Plug-In . SVG Version: 6.00 Build 0)  -->
<svg version="1.1" id="Layer_1" xmlns="http://www.w3.org/2000/svg" xmlns:xlink="http://www.w3.org/1999/xlink" x="0px" y="0px"
	 viewBox="0 0 595.3 841.9" style="enable-background:new 0 0 595.3 841.9;" xml:space="preserve">
<style type="text/css">
	.st0{fill:none;stroke:#007AFF;stroke-width:14;stroke-miterlimit:10;}
</style>
<g>
	<g>
		<path class="st0" d="M307.7,561.1c0,1.3-2.6,5.8-1.5,5.2c21.5-10.9,56.3-27.4,95.8-33c39.2-5.5,72.2-2.3,94.4,1.7
			c1,0.2,2-0.6,2-1.7c1.1-91,2.2-182,3.3-273c0-0.7-0.5-1.4-1.2-1.6c-18.9-6.1-53.9-14.6-97.2-8.6c-50.4,7.1-85.4,30.2-101.5,42.4
			c-0.4,0.3-0.7,0.9-0.7,1.4C303.4,383,305.6,472,307.7,561.1z"/>
		<path class="st0" d="M300.4,568.8c0,0.3-0.3,0.5-0.6,0.4c-19.2-10.7-67.7-26.3-108.8-32.7c-39.9-6.2-73.4-3-95.7,1
			c-0.3,0-0.5-0.2-0.5-0.4c-0.1-91.8-0.2-183.6-0.3-275.5c0-0.2,0.1-0.4,0.3-0.4c18.7-5.9,54.1-14.4,97.9-7.8
			c50.7,7.7,85.5,31.5,101.2,43.9c0.1,0.1,0.2,0.2,0.2,0.3C295.9,385,303.7,478.9,300.4,568.8z"/>
	</g>
	<path class="st0" d="M88.2,277.7c-12.2-1.2-24.9-0.4-37.5,0.3c-1,0-1.8,0.9-1.8,1.8c0,23.3,0,273,0,307.4c0,1.9,1.9,3.3,3.7,2.7
		c24.6-7.9,165.2-50.2,245-10.5c0.9,0.4,1.9,0.4,2.7-0.1c10.5-6.4,85.2-46,243.7,10.5c1.8,0.7,3.8-0.7,3.8-2.7V279.3
		c0-1.6-16.3-2.8-17.9-2.8h-26.1"/>
</g>
</svg>
