<?xml version="1.0" encoding="UTF-8"?>
<svg width="700pt" height="700pt" version="1.1" viewBox="0 0 700 700" xmlns="http://www.w3.org/2000/svg" xmlns:xlink="http://www.w3.org/1999/xlink">
 <defs>
  <symbol id="o" overflow="visible">
   <path d="m29.312-1.75c-1.5117 0.78125-3.0898 1.3711-4.7344 1.7656-1.6367 0.40625-3.3398 0.60938-5.1094 0.60938-5.3125 0-9.5273-1.4844-12.641-4.4531-3.1055-2.9688-4.6562-7-4.6562-12.094s1.5508-9.125 4.6562-12.094c3.1133-2.9688 7.3281-4.4531 12.641-4.4531 1.7695 0 3.4727 0.19922 5.1094 0.59375 1.6445 0.39844 3.2227 0.99219 4.7344 1.7812v6.5938c-1.5312-1.0391-3.0391-1.8008-4.5156-2.2812-1.4805-0.48828-3.0391-0.73438-4.6719-0.73438-2.9375 0-5.2461 0.94531-6.9219 2.8281-1.6797 1.875-2.5156 4.4648-2.5156 7.7656 0 3.293 0.83594 5.8828 2.5156 7.7656 1.6758 1.875 3.9844 2.8125 6.9219 2.8125 1.6328 0 3.1914-0.23828 4.6719-0.71875 1.4766-0.48828 2.9844-1.2539 4.5156-2.2969z"/>
  </symbol>
  <symbol id="c" overflow="visible">
   <path d="m21.453-17.406c-0.67969-0.3125-1.3516-0.53906-2.0156-0.6875-0.65625-0.15625-1.3203-0.23438-1.9844-0.23438-1.9688 0-3.4844 0.63281-4.5469 1.8906-1.0547 1.2617-1.5781 3.0703-1.5781 5.4219v11.016h-7.6562v-23.922h7.6562v3.9219c0.97656-1.5625 2.1016-2.7031 3.375-3.4219 1.2812-0.71875 2.8125-1.0781 4.5938-1.0781 0.25 0 0.52344 0.011719 0.82812 0.03125 0.30078 0.023438 0.73438 0.070312 1.2969 0.14062z"/>
  </symbol>
  <symbol id="a" overflow="visible">
   <path d="m27.562-12.031v2.1875h-17.891c0.1875 1.793 0.83203 3.1367 1.9375 4.0312 1.1133 0.89844 2.6719 1.3438 4.6719 1.3438 1.6016 0 3.25-0.23438 4.9375-0.70312 1.6875-0.47656 3.4219-1.2031 5.2031-2.1719v5.8906c-1.8047 0.6875-3.6094 1.2031-5.4219 1.5469-1.8125 0.35156-3.6211 0.53125-5.4219 0.53125-4.3359 0-7.7031-1.0977-10.109-3.2969-2.3984-2.207-3.5938-5.2969-3.5938-9.2656 0-3.9062 1.1758-6.9727 3.5312-9.2031 2.3633-2.2383 5.6094-3.3594 9.7344-3.3594 3.7578 0 6.7695 1.1367 9.0312 3.4062 2.2578 2.2617 3.3906 5.2812 3.3906 9.0625zm-7.8594-2.5312c0-1.457-0.42969-2.6289-1.2812-3.5156-0.84375-0.89453-1.9492-1.3438-3.3125-1.3438-1.4922 0-2.6992 0.41797-3.625 1.25-0.91797 0.83594-1.4922 2.0391-1.7188 3.6094z"/>
  </symbol>
  <symbol id="b" overflow="visible">
   <path d="m14.391-10.766c-1.5938 0-2.793 0.27344-3.5938 0.8125-0.80469 0.54297-1.2031 1.3398-1.2031 2.3906 0 0.96875 0.32031 1.7305 0.96875 2.2812 0.64453 0.54297 1.5469 0.8125 2.7031 0.8125 1.4375 0 2.6445-0.51562 3.625-1.5469 0.98828-1.0312 1.4844-2.3203 1.4844-3.875v-0.875zm11.688-2.8906v13.656h-7.7031v-3.5469c-1.0312 1.4492-2.1875 2.5078-3.4688 3.1719s-2.8398 1-4.6719 1c-2.4805 0-4.4961-0.72266-6.0469-2.1719-1.543-1.4453-2.3125-3.3203-2.3125-5.625 0-2.8125 0.96094-4.8672 2.8906-6.1719 1.9375-1.3125 4.9688-1.9688 9.0938-1.9688h4.5156v-0.60938c0-1.207-0.48047-2.0938-1.4375-2.6562-0.94922-0.5625-2.4375-0.84375-4.4688-0.84375-1.6367 0-3.1562 0.16797-4.5625 0.5-1.4062 0.32422-2.7188 0.8125-3.9375 1.4688v-5.8281c1.6445-0.40625 3.2891-0.70703 4.9375-0.90625 1.6562-0.20703 3.3047-0.3125 4.9531-0.3125 4.3203 0 7.4375 0.85547 9.3438 2.5625 1.9141 1.6992 2.875 4.4609 2.875 8.2812z"/>
  </symbol>
  <symbol id="h" overflow="visible">
   <path d="m12.031-30.719v6.7969h7.875v5.4688h-7.875v10.141c0 1.1172 0.21875 1.8711 0.65625 2.2656 0.4375 0.38672 1.3125 0.57812 2.625 0.57812h3.9375v5.4688h-6.5625c-3.0234 0-5.1641-0.62891-6.4219-1.8906-1.2617-1.2578-1.8906-3.3984-1.8906-6.4219v-10.141h-3.7969v-5.4688h3.7969v-6.7969z"/>
  </symbol>
  <symbol id="g" overflow="visible">
   <path d="m19.953-20.422v-12.812h7.6875v33.234h-7.6875v-3.4531c-1.0547 1.4062-2.2148 2.4375-3.4844 3.0938-1.2734 0.65625-2.7422 0.98438-4.4062 0.98438-2.9492 0-5.3711-1.1719-7.2656-3.5156-1.8867-2.3438-2.8281-5.3594-2.8281-9.0469s0.94141-6.7031 2.8281-9.0469c1.8945-2.3438 4.3164-3.5156 7.2656-3.5156 1.6562 0 3.1172 0.33594 4.3906 1 1.2812 0.65625 2.4453 1.6836 3.5 3.0781zm-5.0469 15.484c1.6445 0 2.8945-0.59766 3.75-1.7969 0.86328-1.1953 1.2969-2.9297 1.2969-5.2031 0-2.2812-0.43359-4.0195-1.2969-5.2188-0.85547-1.1953-2.1055-1.7969-3.75-1.7969-1.625 0-2.8711 0.60156-3.7344 1.7969-0.85547 1.1992-1.2812 2.9375-1.2812 5.2188 0 2.2734 0.42578 4.0078 1.2812 5.2031 0.86328 1.1992 2.1094 1.7969 3.7344 1.7969z"/>
  </symbol>
  <symbol id="f" overflow="visible">
   <path d="m16.406-4.9375c1.6328 0 2.8828-0.59766 3.75-1.7969 0.86328-1.1953 1.2969-2.9297 1.2969-5.2031 0-2.2812-0.43359-4.0195-1.2969-5.2188-0.86719-1.1953-2.1172-1.7969-3.75-1.7969-1.6367 0-2.8906 0.60547-3.7656 1.8125-0.875 1.1992-1.3125 2.9336-1.3125 5.2031 0 2.2617 0.4375 3.9961 1.3125 5.2031 0.875 1.1992 2.1289 1.7969 3.7656 1.7969zm-5.0781-15.484c1.0508-1.3945 2.2188-2.4219 3.5-3.0781 1.2812-0.66406 2.7539-1 4.4219-1 2.9453 0 5.3672 1.1719 7.2656 3.5156 1.8945 2.3438 2.8438 5.3594 2.8438 9.0469s-0.94922 6.7031-2.8438 9.0469c-1.8984 2.3438-4.3203 3.5156-7.2656 3.5156-1.668 0-3.1406-0.33594-4.4219-1s-2.4492-1.6914-3.5-3.0781v3.4531h-7.6562v-33.234h7.6562z"/>
  </symbol>
  <symbol id="e" overflow="visible">
   <path d="m0.53125-23.922h7.6562l6.4219 16.234 5.4688-16.234h7.6562l-10.062 26.188c-1.0117 2.6641-2.1953 4.5234-3.5469 5.5781-1.3438 1.0625-3.1211 1.5938-5.3281 1.5938h-4.4219v-5.0156h2.3906c1.3008 0 2.2422-0.21094 2.8281-0.625 0.59375-0.40625 1.0547-1.1484 1.3906-2.2188l0.20312-0.65625z"/>
  </symbol>
  <symbol id="d" overflow="visible">
   <path d="m16.797-19.547c1.2891 0 2.2695-0.28125 2.9375-0.84375 0.67578-0.57031 1.0156-1.4141 1.0156-2.5312 0-1.0938-0.33984-1.9258-1.0156-2.5-0.66797-0.58203-1.6484-0.875-2.9375-0.875h-4.5625v6.75zm0.26562 13.953c1.6562 0 2.8984-0.34766 3.7344-1.0469 0.83203-0.69531 1.25-1.7539 1.25-3.1719 0-1.375-0.41797-2.4062-1.25-3.0938-0.82422-0.69531-2.0703-1.0469-3.7344-1.0469h-4.8281v8.3594zm7.6562-11.469c1.7578 0.51172 3.125 1.4609 4.0938 2.8438 0.96875 1.375 1.4531 3.0703 1.4531 5.0781 0 3.0742-1.043 5.3672-3.125 6.875-2.0742 1.5117-5.2305 2.2656-9.4688 2.2656h-13.656v-31.891h12.344c4.4258 0 7.6328 0.67188 9.625 2.0156 1.9883 1.3359 2.9844 3.4766 2.9844 6.4219 0 1.5547-0.36719 2.875-1.0938 3.9688-0.73047 1.0859-1.7812 1.8906-3.1562 2.4219z"/>
  </symbol>
  <symbol id="n" overflow="visible">
   <path d="m3.6719-33.234h7.6562v18.094l8.7969-8.7812h8.8906l-11.688 10.969 12.594 12.953h-9.2656l-9.3281-9.9688v9.9688h-7.6562z"/>
  </symbol>
  <symbol id="m" overflow="visible">
   <path d="m27.734-14.562v14.562h-7.7031v-11.109c0-2.0938-0.046875-3.5312-0.14062-4.3125-0.085937-0.78125-0.24219-1.3594-0.46875-1.7344-0.30469-0.5-0.71094-0.88281-1.2188-1.1562-0.51172-0.28125-1.0938-0.42188-1.75-0.42188-1.5938 0-2.8516 0.61719-3.7656 1.8438-0.90625 1.2305-1.3594 2.9375-1.3594 5.125v11.766h-7.6562v-33.234h7.6562v12.812c1.1445-1.3945 2.3633-2.4219 3.6562-3.0781 1.3008-0.66406 2.7383-1 4.3125-1 2.7578 0 4.8516 0.85156 6.2812 2.5469 1.4375 1.6875 2.1562 4.1523 2.1562 7.3906z"/>
  </symbol>
  <symbol id="l" overflow="visible">
   <path d="m4.0156-31.891h8.2188v31.891h-8.2188z"/>
  </symbol>
  <symbol id="k" overflow="visible">
   <path d="m23-23.172v6.2344c-1.0312-0.71875-2.0742-1.2422-3.125-1.5781-1.043-0.34375-2.125-0.51562-3.25-0.51562-2.1367 0-3.8047 0.625-5 1.875-1.1875 1.2422-1.7812 2.9805-1.7812 5.2188 0 2.2305 0.59375 3.9688 1.7812 5.2188 1.1953 1.25 2.8633 1.875 5 1.875 1.1953 0 2.332-0.17578 3.4062-0.53125 1.0703-0.36328 2.0625-0.89453 2.9688-1.5938v6.2656c-1.1875 0.4375-2.4023 0.76562-3.6406 0.98438-1.2305 0.22656-2.4648 0.34375-3.7031 0.34375-4.3125 0-7.6875-1.1094-10.125-3.3281s-3.6562-5.2969-3.6562-9.2344c0-3.9453 1.2188-7.0234 3.6562-9.2344 2.4375-2.2188 5.8125-3.3281 10.125-3.3281 1.25 0 2.4844 0.10938 3.7031 0.32812s2.4297 0.55469 3.6406 1z"/>
  </symbol>
  <symbol id="j" overflow="visible">
   <path d="m15.062-19.031c-1.6992 0-2.9961 0.60938-3.8906 1.8281-0.88672 1.2188-1.3281 2.9766-1.3281 5.2656 0 2.293 0.44141 4.0469 1.3281 5.2656 0.89453 1.2188 2.1914 1.8281 3.8906 1.8281 1.6641 0 2.9375-0.60938 3.8125-1.8281 0.88281-1.2188 1.3281-2.9727 1.3281-5.2656 0-2.2891-0.44531-4.0469-1.3281-5.2656-0.875-1.2188-2.1484-1.8281-3.8125-1.8281zm0-5.4688c4.1133 0 7.3281 1.1094 9.6406 3.3281s3.4688 5.2969 3.4688 9.2344c0 3.9297-1.1562 7.0078-3.4688 9.2344-2.3125 2.2188-5.5273 3.3281-9.6406 3.3281-4.1367 0-7.3711-1.1094-9.7031-3.3281-2.3242-2.2266-3.4844-5.3047-3.4844-9.2344 0-3.9375 1.1602-7.0156 3.4844-9.2344 2.332-2.2188 5.5664-3.3281 9.7031-3.3281z"/>
  </symbol>
  <symbol id="i" overflow="visible">
   <path d="m27.734-14.562v14.562h-7.7031v-11.156c0-2.0625-0.046875-3.4844-0.14062-4.2656-0.085937-0.78125-0.24219-1.3594-0.46875-1.7344-0.30469-0.5-0.71094-0.88281-1.2188-1.1562-0.51172-0.28125-1.0938-0.42188-1.75-0.42188-1.5938 0-2.8516 0.61719-3.7656 1.8438-0.90625 1.2305-1.3594 2.9375-1.3594 5.125v11.766h-7.6562v-23.922h7.6562v3.5c1.1445-1.3945 2.3633-2.4219 3.6562-3.0781 1.3008-0.66406 2.7383-1 4.3125-1 2.7578 0 4.8516 0.85156 6.2812 2.5469 1.4375 1.6875 2.1562 4.1523 2.1562 7.3906z"/>
  </symbol>
 </defs>
 <g>
  <path d="m503.02 306.86 15.129-15.129c6.918-6.6406 11.023-15.684 11.477-25.262 0.44922-9.5781-2.7891-18.965-9.0508-26.227-4.9219-5.5312-11.414-9.4258-18.613-11.156l3.0625-3.0625c6.9375-6.6328 11.059-15.676 11.508-25.266 0.45312-9.5859-2.8008-18.98-9.082-26.234-6.6914-7.5117-16.195-11.918-26.25-12.164-10.066-0.19531-19.785 3.6523-26.988 10.684l-1.6875 1.6875v0.003907c-6.4688-6.1523-14.98-9.6953-23.906-9.9609-10.031-0.1875-19.719 3.6797-26.871 10.719l-17.422 17.422h0.003906c-1.9219-8-6.4766-15.121-12.93-20.223-6.457-5.1016-14.441-7.8828-22.668-7.8984h-0.050781c-9.6875-0.007812-18.977 3.8477-25.805 10.719l-66.5 66.5c-1.2461-10.77-6.2891-20.746-14.227-28.133-5.2031-4.6992-12.016-7.2109-19.023-7.0156s-13.672 3.0859-18.602 8.0664l-63 63c-27.723 26.906-43.996 63.469-45.434 102.07-1.4414 38.602 12.066 76.273 37.707 105.17 17.609 19.59 40.164 34.082 65.301 41.961 25.137 7.875 51.93 8.8438 77.57 2.8008 6.6367 0.90234 13.328 1.3672 20.027 1.3828 39.125 0.023438 76.637-15.602 104.18-43.391l118.39-118.3h0.003907c6.8984-6.668 10.988-15.719 11.434-25.305 0.44531-9.5859-2.7852-18.977-9.0391-26.258-4.918-5.5547-11.422-9.4688-18.637-11.207zm4.543-54.922v-0.003906c3.2109 3.9531 4.8125 8.9727 4.4883 14.055s-2.5508 9.8555-6.2383 13.367l-38.824 38.824c-0.25391-0.24609-0.53516-0.4375-0.78906-0.66406-0.62109-0.55078-1.25-1.0859-1.8984-1.582-0.64844-0.5-1.5391-1.1211-2.3359-1.6445-0.62891-0.41016-1.2617-0.875-1.918-1.2148-0.94531-0.53516-1.9258-0.98828-2.9062-1.4336-0.57031-0.26172-1.1094-0.55078-1.6875-0.77734v-0.007813c-1.5859-0.63672-3.2227-1.1602-4.8906-1.5547l12.094-12.102 3.0352-3.0195c1.5469-1.5781 2.957-3.2812 4.2188-5.0938 0.53516-0.74219 0.98047-1.5234 1.4531-2.293 0.57812-0.96094 1.1289-1.9258 1.6289-2.9219 0.5-0.99609 1.0859-2.2578 1.5391-3.4219 0.15625-0.42969 0.28125-0.875 0.42969-1.2773h-0.003907c1.6875-4.8086 2.3867-9.9102 2.0586-14.996v-0.078125c-0.11719-1.6523-0.34766-3.2969-0.68359-4.918-0.070312-0.35156-0.16797-0.69922-0.24609-1.0508-0.20313-0.875-0.33984-1.75-0.60547-2.5273l4.5156-4.5156h0.003906c3.6602-3.6758 8.6836-5.6641 13.867-5.4961 5.2461 0.125 10.207 2.4219 13.695 6.3438zm-40.977-66.5v-0.003906c3.75-3.7148 8.8594-5.7344 14.141-5.5898 5.2617 0.14062 10.234 2.457 13.727 6.3945 3.2148 3.9531 4.8164 8.9727 4.4805 14.059-0.33203 5.082-2.5781 9.8516-6.2812 13.348l-25.051 25.043-0.17578 0.18359-1.5469 1.5586c-0.21875-0.20312-0.45312-0.36719-0.66406-0.55859-0.69922-0.62109-1.3984-1.2266-2.1367-1.75-0.73438-0.52344-1.375-0.98828-2.0742-1.4531-0.69922-0.46484-1.4102-0.95312-2.1523-1.375-0.74219-0.42187-1.75-0.875-2.625-1.2773-0.66406-0.31641-1.3125-0.65625-1.9961-0.92578v-0.003907c-1.5352-0.60547-3.1055-1.1094-4.707-1.5039h-0.097657l3.0703-3.0625c1.6445-1.6758 3.1328-3.4922 4.4453-5.4336 0.22656-0.32422 0.42969-0.64844 0.64062-0.98047 1.0078-1.543 1.9062-3.1562 2.6836-4.832 0.21875-0.46484 0.45312-0.875 0.65625-1.375v0.003907c0.80859-1.9102 1.4648-3.8828 1.9531-5.8984 0.15625-0.64062 0.22656-1.2852 0.35156-1.9258 0.26172-1.3594 0.45313-2.7305 0.57422-4.1133 0.070313-0.875 0.10547-1.75 0.11328-2.6875 0-1.207-0.0625-2.4062-0.16797-3.6133-0.078125-0.875-0.11328-1.75-0.24609-2.5547l0.003906 0.003906c-0.28125-1.8125-0.69922-3.6016-1.25-5.3477zm-281.57 317.01c-14.438-7.2461-27.41-17.102-38.266-29.066-22.602-25.574-34.469-58.879-33.137-92.984 1.3359-34.105 15.773-66.379 40.305-90.109l63-63c1.8945-1.9062 4.4688-2.9805 7.1562-2.9922 2.2656-0.03125 4.457 0.80469 6.125 2.3359 5.6289 5.2695 8.875 12.594 9.0039 20.301 0.125 7.707-2.8789 15.137-8.3281 20.59l-59.246 59.211c-1.6914 1.6289-2.6523 3.8711-2.6719 6.2148-0.019532 2.3477 0.90234 4.6055 2.5625 6.2656 1.6602 1.6602 3.9141 2.582 6.2617 2.5625s4.5898-0.98438 6.2188-2.6719l59.184-59.176 92.043-92.043c3.5625-3.5859 8.418-5.6016 13.473-5.5898 5.082 0.003907 9.9531 2.0234 13.547 5.6172 3.5898 3.5898 5.6055 8.4648 5.6094 13.543 0 5.082-2.0195 9.9531-5.6094 13.547l-98.559 98.578c-1.6914 1.6289-2.6523 3.8711-2.6719 6.2188-0.019531 2.3438 0.90234 4.6016 2.5625 6.2617 1.6602 1.6602 3.9141 2.582 6.2617 2.5625 2.3477-0.019532 4.5898-0.98438 6.2188-2.6719l98.57-98.578 39.516-39.508-0.003907 0.003906c3.7227-3.7188 8.8086-5.7422 14.066-5.5977 5.2539 0.14453 10.223 2.4414 13.734 6.3594 2.4219 2.7266 3.9492 6.1328 4.375 9.7539 0 0.23438 0 0.48828 0.042969 0.73438 0.089844 0.92188 0.11328 1.8516 0.070313 2.7773 0 0.32422-0.0625 0.64844-0.085938 0.97266v-0.003906c-0.085937 0.88281-0.22266 1.7578-0.41406 2.625-0.070313 0.31641-0.14844 0.62891-0.23438 0.94531-0.25781 0.92578-0.57031 1.8359-0.94531 2.7227-0.085937 0.21875-0.17578 0.4375-0.26953 0.64844v-0.003906c-1.0781 2.3359-2.5625 4.457-4.375 6.2773l-20.309 20.309-4.7773 4.7695-0.050782 0.0625v0.042968l-111.83 111.77c-1.6875 1.6289-2.6523 3.8711-2.6719 6.2188-0.019531 2.3477 0.90234 4.6016 2.5625 6.2617 1.6602 1.6602 3.918 2.582 6.2617 2.5625 2.3477-0.019531 4.5898-0.98047 6.2188-2.6719l111.78-111.78c0.35938-0.35938 0.76953-0.61328 1.1445-0.9375l0.003906 0.003906c3.4688-2.9141 7.832-4.5469 12.363-4.6289h0.52344c1.3047 0.03125 2.5977 0.19531 3.8672 0.48828 3.8242 0.90234 7.2734 2.9609 9.8789 5.8984 1.9805 2.2383 3.3477 4.9531 3.9727 7.875 1.5234 7.0703-0.66016 14.426-5.793 19.52l-1.75 1.75-35.5 35.41c-0.078124 0.078125-0.097656 0.17578-0.17578 0.25391l-73.246 73.246 0.003906 0.003906c-1.6875 1.6289-2.6523 3.8711-2.6719 6.2148-0.019531 2.3477 0.90234 4.6055 2.5625 6.2656 1.6602 1.6602 3.918 2.582 6.2617 2.5625 2.3477-0.019531 4.5898-0.98438 6.2188-2.6719l73.5-73.449c2.6953-2.7031 6.1445-4.5312 9.8984-5.25l0.25391-0.070313-0.003906 0.003907c1.2852-0.23047 2.5859-0.32422 3.8867-0.28125 1.1797 0.042969 2.3477 0.19141 3.5 0.44531l0.36719 0.050781c0.44531 0.10547 0.875 0.30469 1.2852 0.4375v0.003907c3.3008 1.0078 6.2695 2.8906 8.5859 5.4492 0.82422 0.91406 1.5469 1.9141 2.1602 2.9844 2.0469 3.9609 2.7617 8.4766 2.043 12.875-0.72266 4.4023-2.8398 8.4531-6.043 11.555l-118.39 118.34c-2.4062 2.4062-4.8906 4.6914-7.4375 6.8789-0.47266 0.39453-0.95312 0.76172-1.4258 1.1562-2.0312 1.6875-4.0859 3.3164-6.1953 4.875-0.82422 0.60547-1.6719 1.1797-2.5039 1.75-1.8008 1.2617-3.6289 2.4727-5.4766 3.6406-1.0156 0.64062-2.0312 1.25-3.0625 1.8633-1.75 1.0078-3.4492 1.9688-5.207 2.9062-1.1562 0.61328-2.3203 1.2266-3.5 1.8008-1.6289 0.80469-3.2812 1.5469-4.9453 2.2734-1.3203 0.58594-2.625 1.1914-3.9883 1.75-1.3633 0.55859-2.8359 1.0508-4.2539 1.5664-1.6445 0.59375-3.2734 1.2148-4.9336 1.75-0.32422 0.10547-0.65625 0.18359-0.98047 0.28125-2.5547 0.78906-5.1367 1.5156-7.7422 2.1445-0.078125 0-0.14062 0.078125-0.22656 0.10547v-0.003906c-29.98 7.2148-61.547 3.582-89.102-10.258zm203.48-26.914c-18.109 18.25-41.234 30.699-66.438 35.77 0.52344-0.33203 0.99609-0.74219 1.5234-1.0859 2.8164-1.8125 5.5312-3.8047 8.2422-5.8281 1.5742-1.1641 3.2031-2.25 4.7266-3.5 3.2656-2.625 6.3867-5.4961 9.457-8.4453 0.76953-0.72656 1.6172-1.3555 2.3633-2.1016l118.39-118.39v0.003906c1.5781-1.6211 3.0117-3.3789 4.2852-5.25 0.4375-0.62109 0.80469-1.2617 1.207-1.8984 0.69141-1.1055 1.3242-2.25 1.8984-3.4219 0.48828-0.99609 0.94531-1.9844 1.3477-3.0117 0.25391-0.65625 0.45312-1.3281 0.67188-2.0039l0.003906 0.003906c1.5078-4.5078 2.1562-9.2578 1.9062-14v-0.78906c-0.10547-1.4883-0.30469-2.9727-0.60156-4.4375-0.11328-0.58594-0.26953-1.1562-0.41016-1.75-0.14062-0.59375-0.28906-1.4336-0.50781-2.125l4.3125-4.3242v0.003907c3.7109-3.7383 8.7969-5.7812 14.062-5.6484 5.2656 0.13672 10.246 2.4336 13.762 6.3555 3.1992 3.9805 4.793 9.0156 4.457 14.113-0.33203 5.0977-2.5664 9.8867-6.2617 13.414z"/>
  <path d="m601.19 63.812c-3.418-3.4141-8.957-3.4141-12.375 0l-52.5 52.5c-1.6875 1.6328-2.6484 3.8711-2.668 6.2188-0.023437 2.3477 0.90234 4.6055 2.5625 6.2617 1.6562 1.6602 3.9141 2.5859 6.2617 2.5625 2.3477-0.019531 4.5859-0.98047 6.2188-2.668l52.5-52.5c3.4141-3.418 3.4141-8.957 0-12.375z"/>
  <path d="m591.09 132.17-35 17.5c-4.3281 2.1602-6.082 7.418-3.9219 11.742 2.1602 4.3281 7.418 6.082 11.742 3.9219l35-17.5c4.3281-2.1602 6.082-7.418 3.9219-11.742-2.1602-4.3281-7.418-6.082-11.742-3.9219z"/>
  <path d="m502.99 112.5c4.1445 2.4883 9.5156 1.1484 12.008-2.9922l26.25-43.75c2.3828-4.1328 1.0156-9.4141-3.0742-11.871-4.0898-2.457-9.3945-1.1875-11.926 2.8555l-26.25 43.75c-2.4883 4.1445-1.1484 9.5156 2.9922 12.008z"/>
  <path d="m289.46 99.699c1.9492 4.3672 7.043 6.3633 11.441 4.4766 4.3984-1.8828 6.4648-6.9492 4.6445-11.375l-26.25-61.25c-1.9492-4.3672-7.043-6.3633-11.441-4.4766-4.3984 1.8828-6.4648 6.9492-4.6445 11.375z"/>
  <path d="m332.5 105c2.3203 0 4.5469-0.92188 6.1875-2.5625s2.5625-3.8672 2.5625-6.1875v-52.5c0-4.832-3.918-8.75-8.75-8.75s-8.75 3.918-8.75 8.75v52.5c0 2.3203 0.92188 4.5469 2.5625 6.1875s3.8672 2.5625 6.1875 2.5625z"/>
  <path d="m255.67 119.22c3.0195 3.7734 8.5273 4.3867 12.301 1.3633 3.7734-3.0195 4.3867-8.5273 1.3633-12.301l-35-43.75c-3.0195-3.7734-8.5273-4.3867-12.301-1.3633-3.7734 3.0195-4.3867 8.5273-1.3633 12.301z"/>
  <use x="70" y="691.25" xlink:href="#o"/>
  <use x="102.109375" y="691.25" xlink:href="#c"/>
  <use x="123.683594" y="691.25" xlink:href="#a"/>
  <use x="153.355469" y="691.25" xlink:href="#b"/>
  <use x="182.878906" y="691.25" xlink:href="#h"/>
  <use x="203.792969" y="691.25" xlink:href="#a"/>
  <use x="233.464844" y="691.25" xlink:href="#g"/>
  <use x="280.011719" y="691.25" xlink:href="#f"/>
  <use x="311.328125" y="691.25" xlink:href="#e"/>
  <use x="355.078125" y="691.25" xlink:href="#d"/>
  <use x="388.425781" y="691.25" xlink:href="#a"/>
  <use x="418.097656" y="691.25" xlink:href="#c"/>
  <use x="439.675781" y="691.25" xlink:href="#n"/>
  <use x="468.769531" y="691.25" xlink:href="#b"/>
  <use x="498.292969" y="691.25" xlink:href="#m"/>
  <use x="544.671875" y="691.25" xlink:href="#l"/>
  <use x="560.949219" y="691.25" xlink:href="#k"/>
  <use x="586.882812" y="691.25" xlink:href="#j"/>
  <use x="616.9375" y="691.25" xlink:href="#i"/>
 </g>
</svg>
