<?xml version="1.0" encoding="utf-8"?>
<!-- Generator: Adobe Illustrator 24.3.0, SVG Export Plug-In . SVG Version: 6.00 Build 0)  -->
<svg version="1.1" id="Layer_1" xmlns="http://www.w3.org/2000/svg" xmlns:xlink="http://www.w3.org/1999/xlink" x="0px" y="0px"
	 viewBox="0 0 1920 1080" style="enable-background:new 0 0 1920 1080;" xml:space="preserve">
<style type="text/css">
	.st0{fill:#0000FF;}
	.st1{fill:#E6E6E6;}
	.st2{stroke:#000000;stroke-width:0.25;stroke-miterlimit:10;}
</style>
<g>
	<polygon class="st0" points="479,435.22 479,567.89 582.97,600 689,567.34 689,438.69 584,466.86 504.98,443.05 	"/>
	<polygon class="st1" points="584,466.86 633.43,435.22 633.43,446.25 664.17,435.22 664.17,445.35 	"/>
	<polygon class="st1" points="580.84,465.91 504.98,443.05 504.98,432.5 532.79,444.62 532.85,435.22 	"/>
</g>
<g>
	<g>
		<path class="st2" d="M751.78,524.58c-3.51,0-6.97-0.35-10.38-1.04c-3.42-0.69-6.6-1.78-9.57-3.26v-57.94
			c0-0.66-0.2-1.18-0.59-1.54c-0.39-0.36-0.86-0.65-1.41-0.86l-5.76-2.58v-3.22l16.77-0.82v25.93v2.58c1.75-2.6,3.64-4.5,5.67-5.69
			c2.02-1.19,3.94-1.95,5.76-2.27c1.81-0.32,3.28-0.48,4.4-0.48c4.05,0,7.51,1.03,10.38,3.08c2.87,2.06,5.07,4.86,6.6,8.41
			c1.53,3.55,2.29,7.61,2.29,12.17c0,5.02-0.94,9.61-2.81,13.78c-1.87,4.17-4.61,7.5-8.21,10
			C761.32,523.33,756.94,524.58,751.78,524.58z M751.28,519.64c3.45,0,6.29-0.89,8.52-2.67c2.24-1.78,3.89-4.16,4.96-7.14
			c1.07-2.98,1.61-6.22,1.61-9.72c0-3.81-0.51-7.22-1.52-10.25c-1.01-3.02-2.61-5.41-4.78-7.16c-2.18-1.75-5-2.63-8.48-2.63
			c-1.54,0-3.36,0.38-5.46,1.13c-2.1,0.76-3.86,2.12-5.28,4.08v30.19c0.76,0.85,1.8,1.58,3.13,2.2c1.33,0.62,2.67,1.1,4.03,1.45
			C749.37,519.47,750.46,519.64,751.28,519.64z"/>
		<path class="st2" d="M808.85,524.58c-4.71,0-8.84-1.03-12.38-3.08c-3.54-2.06-6.29-4.99-8.25-8.79c-1.97-3.81-2.95-8.34-2.95-13.6
			c0-4.87,0.97-9.23,2.92-13.1c1.95-3.87,4.72-6.94,8.32-9.2c3.6-2.27,7.86-3.4,12.78-3.4c5.35,0,9.76,1.19,13.24,3.56
			c3.48,2.37,6.07,5.49,7.77,9.36c1.71,3.87,2.56,8.07,2.56,12.6c0,4.78-0.97,9.1-2.9,12.99c-1.93,3.88-4.7,6.97-8.3,9.25
			C818.08,523.44,813.81,524.58,808.85,524.58z M809.48,519.64c2.63,0,4.81-0.6,6.53-1.81c1.72-1.21,3.09-2.8,4.1-4.76
			c1.01-1.96,1.73-4.1,2.15-6.41c0.42-2.31,0.63-4.57,0.63-6.78c0-3.6-0.47-7.04-1.41-10.34c-0.94-3.29-2.45-5.98-4.53-8.07
			c-2.09-2.09-4.87-3.13-8.34-3.13c-2.6,0-4.76,0.6-6.48,1.79c-1.72,1.19-3.09,2.77-4.1,4.71c-1.01,1.95-1.74,4.07-2.18,6.37
			c-0.44,2.3-0.66,4.53-0.66,6.71c0,2.45,0.23,4.94,0.7,7.48c0.47,2.54,1.25,4.88,2.33,7.03c1.09,2.15,2.55,3.88,4.37,5.21
			C804.44,518.98,806.73,519.64,809.48,519.64z"/>
		<path class="st2" d="M865.74,524.58c-4.71,0-8.84-1.03-12.38-3.08c-3.54-2.06-6.29-4.99-8.25-8.79c-1.97-3.81-2.95-8.34-2.95-13.6
			c0-4.87,0.97-9.23,2.92-13.1c1.95-3.87,4.72-6.94,8.32-9.2c3.6-2.27,7.86-3.4,12.78-3.4c5.35,0,9.76,1.19,13.24,3.56
			c3.48,2.37,6.07,5.49,7.77,9.36c1.71,3.87,2.56,8.07,2.56,12.6c0,4.78-0.97,9.1-2.9,12.99c-1.93,3.88-4.7,6.97-8.3,9.25
			C874.97,523.44,870.7,524.58,865.74,524.58z M866.38,519.64c2.63,0,4.81-0.6,6.53-1.81c1.72-1.21,3.09-2.8,4.1-4.76
			c1.01-1.96,1.73-4.1,2.15-6.41c0.42-2.31,0.63-4.57,0.63-6.78c0-3.6-0.47-7.04-1.41-10.34c-0.94-3.29-2.45-5.98-4.53-8.07
			c-2.09-2.09-4.87-3.13-8.34-3.13c-2.6,0-4.76,0.6-6.48,1.79c-1.72,1.19-3.09,2.77-4.1,4.71c-1.01,1.95-1.74,4.07-2.18,6.37
			c-0.44,2.3-0.66,4.53-0.66,6.71c0,2.45,0.23,4.94,0.7,7.48c0.47,2.54,1.25,4.88,2.33,7.03c1.09,2.15,2.55,3.88,4.37,5.21
			C861.34,518.98,863.63,519.64,866.38,519.64z"/>
		<path class="st2" d="M897.7,523.45v-3.31l5.48-1.81c0.57-0.18,1.02-0.44,1.34-0.77c0.32-0.33,0.48-0.82,0.48-1.45v-53.77
			c0-0.66-0.2-1.18-0.59-1.54c-0.39-0.36-0.85-0.65-1.36-0.86l-5.76-2.58v-3.22l16.77-0.82v45.83l19.22-18.63l-5.03-2.58v-3.26
			h19.77v3.26l-5.58,1.95c-0.63,0.21-1.25,0.51-1.84,0.91c-0.59,0.39-1.16,0.85-1.7,1.36l-12.42,11.33l16.41,22.76
			c0.33,0.45,0.79,0.88,1.36,1.27c0.57,0.39,1.15,0.7,1.72,0.91l4.71,1.72v3.31h-20.08v-3.31l3.04-1.99l-13.55-18.59l-6.17,2.45
			v14.1c0,0.63,0.17,1.12,0.52,1.45c0.35,0.33,0.76,0.59,1.25,0.77l4.62,1.81v3.31H897.7z"/>
		<path class="st2" d="M955.5,520.14l5.49-1.81c0.6-0.21,1.05-0.48,1.34-0.79s0.43-0.78,0.43-1.38v-53.81
			c0-0.66-0.18-1.17-0.54-1.52c-0.36-0.35-0.83-0.64-1.41-0.88l-5.76-2.58v-3.22l16.77-0.82v25.66v2.54c1.81-2.39,3.6-4.16,5.35-5.3
			c1.75-1.15,3.49-1.9,5.21-2.27c1.72-0.36,3.42-0.54,5.08-0.54c2.87,0,5.49,0.57,7.87,1.7s4.26,2.91,5.67,5.33
			c1.41,2.42,2.11,5.56,2.11,9.43v26.07c0,0.73,0.17,1.26,0.52,1.61c0.35,0.35,0.76,0.61,1.25,0.79l4.99,1.81v3.31H987.6v-3.31
			l4.62-1.81c0.51-0.18,0.95-0.45,1.29-0.79c0.35-0.35,0.52-0.88,0.52-1.61v-22.17c0-2.84-0.27-5.27-0.79-7.28
			c-0.53-2.01-1.55-3.54-3.06-4.6c-1.51-1.06-3.76-1.59-6.75-1.59c-2.03,0-4.11,0.33-6.26,0.97c-2.15,0.65-3.93,1.88-5.35,3.69
			v31.14c0,0.63,0.16,1.1,0.48,1.41c0.32,0.3,0.75,0.57,1.29,0.82l4.26,1.81v3.31H955.5V520.14z"/>
		<path class="st2" d="M1037.87,524.4c-2.84,0-5.43-0.56-7.78-1.68c-2.34-1.12-4.2-2.89-5.58-5.3c-1.38-2.42-2.06-5.58-2.06-9.47
			V484.1c0-0.66-0.17-1.18-0.52-1.54s-0.81-0.65-1.38-0.86l-5.35-2.22v-3.22l16.32-2.49v30.28c0,2.81,0.24,5.22,0.73,7.23
			c0.48,2.01,1.46,3.54,2.95,4.6c1.48,1.06,3.7,1.59,6.66,1.59c2.75,0,5.1-0.42,7.05-1.27c1.95-0.85,3.48-1.96,4.6-3.35V484.1
			c0-0.66-0.18-1.16-0.54-1.47s-0.85-0.6-1.45-0.84l-5.3-2.22v-3.22l16.37-2.58v40.26c0,0.67,0.18,1.16,0.54,1.5
			s0.83,0.62,1.41,0.86l5.35,2.18v3.26l-15.32,2.54h-0.23v-8.11h-0.5c-2.12,2.75-4.38,4.8-6.78,6.14
			C1044.65,523.73,1041.59,524.4,1037.87,524.4z"/>
		<path class="st2" d="M1102.6,524.58c-3.51,0-6.96-0.35-10.38-1.04s-6.6-1.78-9.56-3.26v-57.94c0-0.66-0.2-1.18-0.59-1.54
			c-0.39-0.36-0.86-0.65-1.41-0.86l-5.76-2.58v-3.22l16.77-0.82v25.93v2.58c1.75-2.6,3.64-4.5,5.67-5.69
			c2.02-1.19,3.94-1.95,5.76-2.27c1.81-0.32,3.28-0.48,4.4-0.48c4.05,0,7.51,1.03,10.38,3.08c2.87,2.06,5.07,4.86,6.6,8.41
			c1.53,3.55,2.29,7.61,2.29,12.17c0,5.02-0.94,9.61-2.81,13.78c-1.88,4.17-4.61,7.5-8.21,10
			C1112.15,523.33,1107.77,524.58,1102.6,524.58z M1102.11,519.64c3.45,0,6.29-0.89,8.52-2.67c2.24-1.78,3.89-4.16,4.96-7.14
			c1.07-2.98,1.61-6.22,1.61-9.72c0-3.81-0.51-7.22-1.52-10.25c-1.01-3.02-2.61-5.41-4.78-7.16c-2.18-1.75-5-2.63-8.48-2.63
			c-1.54,0-3.36,0.38-5.46,1.13c-2.1,0.76-3.86,2.12-5.28,4.08v30.19c0.75,0.85,1.8,1.58,3.13,2.2c1.33,0.62,2.68,1.1,4.04,1.45
			C1100.2,519.47,1101.29,519.64,1102.11,519.64z"/>
	</g>
</g>
</svg>
